<svg width="50" height="50" viewBox="0 0 50 50" fill="none" xmlns="http://www.w3.org/2000/svg">
<path d="M12.2821 15.0293C5.52229 15.0293 0.0227661 20.5288 0.0227661 27.2886C0.0227661 31.4856 2.01925 35.9981 5.95686 40.7008C6.54192 41.3996 7.12493 42.047 7.6844 42.6377C5.14202 43.3317 3.61555 44.5785 3.61555 46.0336C3.61555 48.6097 8.0806 49.9998 12.2817 49.9998C16.4829 49.9998 20.9478 48.6096 20.9478 46.0336C20.9478 44.5796 19.4218 43.3326 16.8811 42.6383C17.8961 41.5667 18.9883 40.306 20.0247 38.8997C20.2649 38.5737 20.1954 38.1148 19.8694 37.8745C19.5436 37.6346 19.0844 37.7039 18.8442 38.0299C17.593 39.7279 16.2387 41.2201 15.057 42.4053C14.9215 42.4745 14.8082 42.5842 14.7373 42.7226C13.6787 43.7629 12.7878 44.5347 12.2824 44.9564C11.7825 44.5388 10.9052 43.7775 9.86019 42.7507C9.78519 42.5864 9.65345 42.4575 9.49271 42.3856C6.17171 39.0452 1.48908 33.2741 1.48908 27.2888C1.48908 21.3376 6.33079 16.4959 12.282 16.4959C18.2332 16.4959 23.0749 21.3376 23.0749 27.2888C23.0749 29.8877 22.1893 32.6944 20.4428 35.6308C20.2359 35.9789 20.3502 36.4288 20.6982 36.6358C21.0462 36.8427 21.4963 36.7284 21.7032 36.3804C23.5864 33.214 24.5413 30.1552 24.5413 27.2888C24.5414 20.5288 19.0418 15.0293 12.2821 15.0293ZM11.8333 46.4814C11.9654 46.5836 12.1238 46.6347 12.2821 46.6347C12.4404 46.6347 12.5987 46.5836 12.7308 46.4814C12.8207 46.4118 14.0459 45.4563 15.679 43.8595C18.1519 44.3638 19.4816 45.3348 19.4816 46.0337C19.4816 46.5557 18.7662 47.1715 17.6145 47.6408C16.202 48.2165 14.3081 48.5335 12.2818 48.5335C7.88665 48.5335 5.08196 47.0529 5.08196 46.0337C5.08196 45.3338 6.41204 44.3633 8.88626 43.859C10.5285 45.4653 11.7554 46.421 11.8333 46.4814Z" fill="#7B2424"/>
<path d="M12.2821 21.9585C11.1224 21.9585 10.0197 22.3246 9.09309 23.0173C8.76887 23.2598 8.70246 23.7192 8.94485 24.0436C9.18743 24.3678 9.6469 24.4341 9.97112 24.1918C10.6421 23.6901 11.4412 23.4249 12.282 23.4249C14.4125 23.4249 16.1458 25.1582 16.1458 27.2889C16.1458 29.4194 14.4125 31.1528 12.282 31.1528C10.1514 31.1528 8.41809 29.4194 8.41809 27.2889C8.41809 26.9253 8.46838 26.5658 8.5675 26.2207C8.67922 25.8315 8.45432 25.4255 8.06516 25.3137C7.67609 25.2023 7.26994 25.427 7.15812 25.8161C7.02131 26.293 6.95187 26.7884 6.95187 27.2889C6.95187 30.2279 9.34299 32.6192 12.2822 32.6192C15.2212 32.6192 17.6124 30.228 17.6124 27.2889C17.6123 24.3497 15.2211 21.9585 12.2821 21.9585Z" fill="#7B2424"/>
<path d="M44.2343 21.3009C44.6073 20.9006 44.9916 20.4694 45.3769 20.009C48.4295 16.3632 49.9772 12.8584 49.9772 9.59172C49.9772 4.30294 45.6744 0 40.3855 0C36.5219 0 33.0529 2.29942 31.5479 5.85802C31.3901 6.23097 31.5646 6.66124 31.9375 6.81886C32.3103 6.97648 32.7407 6.80216 32.8983 6.42931C34.1735 3.41446 37.1124 1.46631 40.3855 1.46631C44.8659 1.46631 48.5109 5.11144 48.5109 9.59182C48.5109 15.6507 42.1498 21.4555 40.3852 22.9488C39.9964 22.6202 39.3842 22.0823 38.6666 21.3788C38.595 21.2369 38.4794 21.1244 38.3405 21.0547C35.8089 18.5058 32.2601 14.1242 32.2601 9.59182C32.2601 9.18683 31.932 8.85861 31.5269 8.85861C31.122 8.85861 30.7937 9.18683 30.7937 9.59182C30.7937 12.8584 32.3415 16.3632 35.3941 20.0091C35.7794 20.4692 36.1633 20.9002 36.5362 21.3004C34.6462 21.8683 33.555 22.8349 33.555 23.9989C33.555 24.9805 34.3513 25.8457 35.7974 26.4348C37.0347 26.939 38.6641 27.2168 40.3854 27.2168C42.1066 27.2168 43.736 26.939 44.9734 26.4348C46.4192 25.8456 47.2155 24.9804 47.2155 23.9988C47.2154 22.837 46.1235 21.8695 44.2343 21.3009ZM40.3853 25.7502C36.9147 25.7502 35.0214 24.5932 35.0214 23.9987C35.0214 23.6114 35.8827 22.9026 37.7217 22.5116C38.9591 23.7156 39.8776 24.431 39.9369 24.477C40.069 24.5792 40.2273 24.6303 40.3856 24.6303C40.5439 24.6303 40.7021 24.5792 40.8343 24.477C40.8936 24.4312 41.8119 23.7157 43.0493 22.5118C43.8686 22.6865 44.5784 22.9424 45.0751 23.2448C45.4972 23.502 45.7493 23.7838 45.7493 23.9987C45.7491 24.5932 43.8558 25.7502 40.3853 25.7502Z" fill="#7B2424"/>
<path d="M40.3855 5.3252C38.0331 5.3252 36.1191 7.23907 36.1191 9.59171C36.1191 11.9442 38.033 13.858 40.3855 13.858C42.7381 13.858 44.6519 11.9443 44.6519 9.59171C44.6519 7.23916 42.7381 5.3252 40.3855 5.3252ZM40.3856 12.3916C38.8415 12.3916 37.5855 11.1356 37.5855 9.59161C37.5855 8.04766 38.8416 6.79151 40.3856 6.79151C41.9296 6.79151 43.1857 8.04756 43.1857 9.59161C43.1856 11.1356 41.9296 12.3916 40.3856 12.3916Z" fill="#7B2424"/>
<path d="M30.8748 23.2656H30.54C30.2963 23.2656 30.0513 23.2817 29.8117 23.3137C29.4104 23.3671 29.1283 23.7356 29.1816 24.1372C29.2307 24.5059 29.5456 24.7738 29.9075 24.7738C29.9397 24.7738 29.9723 24.7718 30.0051 24.7674C30.1808 24.744 30.3608 24.7322 30.5401 24.7322H30.8748V24.7321C31.2798 24.7321 31.608 24.404 31.608 23.9989C31.608 23.5938 31.2798 23.2656 30.8748 23.2656Z" fill="#7B2424"/>
<path d="M28.4508 45.2632C28.4497 45.2632 28.4486 45.2632 28.4474 45.2632L27.4791 45.2676C27.0742 45.2694 26.7474 45.5992 26.7492 46.0041C26.7509 46.4079 27.079 46.734 27.4823 46.734C27.4835 46.734 27.4845 46.734 27.4857 46.734L28.4541 46.7296C28.8589 46.7277 29.1857 46.3979 29.1839 45.9931C29.1822 45.5892 28.8543 45.2632 28.4508 45.2632Z" fill="#7B2424"/>
<path d="M31.7448 32.7627H30.7764C30.3714 32.7627 30.0432 33.091 30.0432 33.4959C30.0432 33.9009 30.3713 34.2291 30.7764 34.2291H31.7448C32.1498 34.2291 32.478 33.901 32.478 33.4959C32.478 33.091 32.1499 32.7627 31.7448 32.7627Z" fill="#7B2424"/>
<path d="M27.8598 24.7594C27.5853 24.4619 27.1216 24.4432 26.8238 24.7176C26.5504 24.9696 26.3018 25.2506 26.0848 25.5528C25.8486 25.8818 25.9238 26.3399 26.2527 26.5761C26.3821 26.6691 26.5317 26.7138 26.6798 26.7138C26.9079 26.7138 27.1327 26.6076 27.2759 26.4082C27.4351 26.1867 27.6175 25.9804 27.818 25.7954C28.1157 25.5209 28.1343 25.057 27.8598 24.7594Z" fill="#7B2424"/>
<path d="M32.3245 45.2456C32.3233 45.2456 32.3222 45.2456 32.321 45.2456L31.3528 45.25C30.9479 45.2518 30.6211 45.5816 30.6229 45.9865C30.6247 46.3903 30.9527 46.7164 31.356 46.7164C31.3572 46.7164 31.3583 46.7164 31.3594 46.7164L32.3277 46.712C32.7326 46.7103 33.0593 46.3804 33.0576 45.9755C33.0557 45.5717 32.7278 45.2456 32.3245 45.2456Z" fill="#7B2424"/>
<path d="M24.5773 45.2808C24.5761 45.2808 24.575 45.2808 24.5739 45.2808L23.6055 45.2852C23.2006 45.287 22.8739 45.6168 22.8756 46.0217C22.8775 46.4255 23.2052 46.7516 23.6087 46.7516C23.6099 46.7516 23.611 46.7516 23.6121 46.7516L24.5805 46.7472C24.9854 46.7453 25.3122 46.4155 25.3104 46.0106C25.3086 45.6067 24.9807 45.2808 24.5773 45.2808Z" fill="#7B2424"/>
<path d="M28.4013 32.1464C28.171 32.0011 27.9543 31.8314 27.7575 31.6422C27.4656 31.3615 27.0013 31.3707 26.7208 31.6623C26.44 31.9541 26.4491 32.4183 26.7409 32.699C27.0092 32.9571 27.3046 33.1884 27.6189 33.3866C27.7404 33.4633 27.8756 33.4998 28.0094 33.4998C28.2528 33.4998 28.4908 33.3788 28.6303 33.1576C28.8464 32.8153 28.7438 32.3624 28.4013 32.1464Z" fill="#7B2424"/>
<path d="M26.599 29.5201C26.5498 29.2674 26.5248 29.0074 26.5248 28.7473L26.525 28.7065C26.5297 28.3017 26.2053 27.9696 25.8003 27.9649C25.7975 27.9648 25.7946 27.9648 25.7917 27.9648C25.3907 27.9648 25.0633 28.2875 25.0586 28.6896L25.0583 28.7474C25.0583 29.1015 25.0924 29.4559 25.1596 29.8007C25.2278 30.1508 25.5346 30.3937 25.8785 30.3937C25.9249 30.3937 25.9721 30.3893 26.0194 30.38C26.4169 30.3025 26.6763 29.9176 26.599 29.5201Z" fill="#7B2424"/>
<path d="M35.6185 32.7627H34.6502C34.2452 32.7627 33.917 33.091 33.917 33.4959C33.917 33.9009 34.2452 34.2291 34.6502 34.2291H35.6185C36.0235 34.2291 36.3517 33.901 36.3517 33.4959C36.3517 33.091 36.0235 32.7627 35.6185 32.7627Z" fill="#7B2424"/>
<path d="M47.3901 34.2554C47.1076 34.0325 46.8057 33.8299 46.4925 33.6537C46.14 33.4548 45.6927 33.5797 45.4938 33.9326C45.2951 34.2853 45.4199 34.7326 45.7728 34.9312C46.0198 35.0705 46.2583 35.2303 46.4812 35.4064C46.616 35.5127 46.776 35.5642 46.9352 35.5642C47.1518 35.5642 47.3664 35.4685 47.5111 35.2853C47.7621 34.9674 47.708 34.5063 47.3901 34.2554Z" fill="#7B2424"/>
<path d="M44.6685 45.7712C44.6129 45.3702 44.2422 45.0894 43.8419 45.1453C43.6017 45.1785 43.3558 45.1959 43.1106 45.1969L42.9734 45.1976C42.5684 45.1997 42.2418 45.5295 42.2437 45.9343C42.2458 46.338 42.5736 46.664 42.9768 46.664C42.9781 46.664 42.9793 46.664 42.9804 46.664L43.1174 46.6633C43.427 46.662 43.7383 46.64 44.0425 46.5979C44.4438 46.5424 44.724 46.1722 44.6685 45.7712Z" fill="#7B2424"/>
<path d="M47.9044 43.709C47.625 43.4157 47.1608 43.4045 46.8679 43.6838C46.6621 43.8798 46.4394 44.0613 46.2059 44.2232C45.8732 44.4539 45.7905 44.9107 46.0211 45.2436C46.1636 45.449 46.392 45.5591 46.6243 45.5591C46.7685 45.5591 46.914 45.5168 47.0414 45.4285C47.3369 45.2235 47.6188 44.9938 47.8793 44.7457C48.1726 44.4663 48.1837 44.0021 47.9044 43.709Z" fill="#7B2424"/>
<path d="M49.3313 40.1485C48.934 40.0736 48.5502 40.3353 48.4752 40.7333C48.4226 41.0123 48.3478 41.2892 48.2525 41.5563C48.1166 41.9377 48.3155 42.3571 48.697 42.4932C48.7783 42.5222 48.8615 42.5359 48.9433 42.5359C49.2444 42.5359 49.5269 42.3488 49.6339 42.0488C49.7547 41.71 49.8497 41.3587 49.9164 41.0047C49.9911 40.6067 49.7292 40.2233 49.3313 40.1485Z" fill="#7B2424"/>
<path d="M49.7669 37.7914C49.6675 37.4453 49.5399 37.1042 49.3874 36.7774C49.2161 36.4104 48.7802 36.2518 48.4129 36.4229C48.046 36.5942 47.8873 37.0304 48.0585 37.3974C48.1786 37.6547 48.2792 37.9235 48.3574 38.1959C48.4497 38.5175 48.7431 38.7271 49.0618 38.7271C49.1289 38.7271 49.1969 38.7178 49.2645 38.6985C49.6536 38.5867 49.8785 38.1806 49.7669 37.7914Z" fill="#7B2424"/>
<path d="M39.4922 32.7627H38.5238C38.1188 32.7627 37.7906 33.091 37.7906 33.4959C37.7906 33.9009 38.1187 34.2291 38.5238 34.2291H39.4922C39.8971 34.2291 40.2254 33.901 40.2254 33.4959C40.2254 33.091 39.8971 32.7627 39.4922 32.7627Z" fill="#7B2424"/>
<path d="M36.1981 45.228C36.197 45.228 36.1959 45.228 36.1947 45.228L35.2263 45.2324C34.8215 45.2342 34.4947 45.5641 34.4965 45.9689C34.4983 46.3728 34.8263 46.6988 35.2296 46.6988C35.2307 46.6988 35.2318 46.6988 35.233 46.6988L36.2013 46.6944C36.6062 46.6926 36.933 46.3628 36.9312 45.9579C36.9295 45.5541 36.6014 45.228 36.1981 45.228Z" fill="#7B2424"/>
<path d="M43.398 32.7696C43.2943 32.7649 43.1893 32.7627 43.0859 32.7627H42.3974C41.9924 32.7627 41.6642 33.091 41.6642 33.4959C41.6642 33.9009 41.9923 34.2291 42.3974 34.2291H43.0859V34.229C43.1688 34.229 43.2513 34.2309 43.3332 34.2345C43.3442 34.2351 43.3553 34.2353 43.3662 34.2353C43.7562 34.2353 44.0808 33.928 44.098 33.5346C44.1159 33.1299 43.8025 32.7875 43.398 32.7696Z" fill="#7B2424"/>
<path d="M40.0717 45.2104C40.0705 45.2104 40.0694 45.2104 40.0682 45.2104L39.0999 45.2148C38.695 45.2166 38.3682 45.5465 38.37 45.9514C38.3719 46.3552 38.6998 46.6813 39.1031 46.6813C39.1043 46.6813 39.1055 46.6813 39.1065 46.6813L40.0749 46.6769C40.4798 46.675 40.8065 46.3452 40.8048 45.9403C40.803 45.5364 40.4751 45.2104 40.0717 45.2104Z" fill="#7B2424"/>
</svg>
