<svg width="395" height="87" viewBox="0 0 395 87" fill="none" xmlns="http://www.w3.org/2000/svg">
<g filter="url(#filter0_d)">
<path d="M64.3503 18.46C64.3503 16.4053 64.0823 14.7303 63.5463 13.435C63.0103 12.1397 62.2287 11.1347 61.2013 10.42C60.2187 9.66067 59.0127 9.147 57.5833 8.879C56.154 8.56633 54.546 8.41 52.7593 8.41C51.1067 8.41 49.2977 8.96833 47.3323 10.085C45.367 11.157 43.3793 12.5863 41.3693 14.373C39.3593 16.115 37.394 18.125 35.4733 20.403C33.5973 22.681 31.8777 25.0037 30.3143 27.371C28.7957 29.7383 27.5003 32.061 26.4283 34.339C25.401 36.5723 24.731 38.56 24.4183 40.302C26.473 40.3467 28.7957 40.2797 31.3863 40.101C34.0217 39.8777 36.6123 39.4087 39.1583 38.694C41.7043 37.9793 44.0717 36.9297 46.2603 35.545C48.449 34.1603 50.1687 32.329 51.4193 30.051C49.5433 29.783 47.8907 29.046 46.4613 27.84C45.0767 26.634 44.3843 25.026 44.3843 23.016C44.3843 22.4353 44.496 21.8323 44.7193 21.207C44.9427 20.5817 45.233 20.0233 45.5903 19.532C45.9923 18.996 46.4613 18.5717 46.9973 18.259C47.5333 17.9017 48.114 17.723 48.7393 17.723C50.7493 17.723 52.1787 18.3707 53.0273 19.666C53.9207 20.9613 54.3673 22.5023 54.3673 24.289C54.3673 25.0037 54.3227 25.7183 54.2333 26.433C54.144 27.1477 53.9877 27.8847 53.7643 28.644C54.747 28.7333 55.8413 28.4877 57.0473 27.907C58.298 27.2817 59.4593 26.4777 60.5313 25.495C61.6033 24.4677 62.4967 23.3287 63.2113 22.078C63.9707 20.8273 64.3503 19.6213 64.3503 18.46ZM52.8263 24.289C52.8263 23.7083 52.737 23.1277 52.5583 22.547C52.4243 21.9663 52.201 21.4527 51.8883 21.006C51.6203 20.5147 51.2407 20.1127 50.7493 19.8C50.3027 19.4873 49.7667 19.331 49.1413 19.331C48.2927 19.331 47.5557 19.733 46.9303 20.537C46.3497 21.341 46.0593 22.1673 46.0593 23.016C46.0593 24.0433 46.2157 24.8697 46.5283 25.495C46.841 26.1203 47.2653 26.634 47.8013 27.036C48.3373 27.438 48.9627 27.7507 49.6773 27.974C50.4367 28.1973 51.2183 28.3983 52.0223 28.577C52.201 27.9517 52.3797 27.2593 52.5583 26.5C52.737 25.696 52.8263 24.959 52.8263 24.289ZM66.2933 16.986C66.2933 19.0407 65.9137 20.8943 65.1543 22.547C64.395 24.155 63.39 25.5173 62.1393 26.634C60.9333 27.7507 59.5487 28.6217 57.9853 29.247C56.4667 29.8723 54.9033 30.2073 53.2953 30.252C51.8213 32.5747 49.9453 34.4953 47.6673 36.014C45.434 37.488 42.9997 38.6717 40.3643 39.565C37.729 40.4137 34.982 41.0167 32.1233 41.374C29.3093 41.6867 26.607 41.8207 24.0163 41.776C23.7483 42.8927 23.5473 43.92 23.4133 44.858C23.324 45.796 23.2793 46.801 23.2793 47.873C23.2793 51.223 24.1503 53.7467 25.8923 55.444C27.6343 57.0967 30.1803 57.923 33.5303 57.923C34.7363 57.923 35.987 57.789 37.2823 57.521C38.5777 57.2083 39.806 56.8287 40.9673 56.382C42.1733 55.8907 43.2677 55.3547 44.2503 54.774C45.233 54.1487 46.0147 53.5233 46.5953 52.898C46.6847 52.8087 46.841 52.9427 47.0643 53.3C47.2877 53.6573 47.3547 53.8807 47.2653 53.97C46.4613 54.774 45.434 55.5557 44.1833 56.315C42.9773 57.0297 41.6373 57.655 40.1633 58.191C38.734 58.727 37.2153 59.1737 35.6073 59.531C34.044 59.8437 32.4807 60 30.9173 60C28.952 60 27.143 59.7543 25.4903 59.263C23.8377 58.7717 22.386 58.0123 21.1353 56.985C19.9293 55.9577 18.969 54.6847 18.2543 53.166C17.5843 51.6027 17.2493 49.7713 17.2493 47.672C17.2493 46.5107 17.2717 45.4163 17.3163 44.389C17.361 43.317 17.5843 42.1557 17.9863 40.905C15.7083 40.4583 13.5197 39.699 11.4203 38.627C9.32099 37.555 7.44499 36.215 5.79233 34.607C4.18433 32.999 2.88899 31.1453 1.90633 29.046C0.968327 26.9467 0.499327 24.6463 0.499327 22.145C0.499327 18.4377 1.30333 15.2217 2.91133 12.497C4.56399 9.72766 6.68566 7.42733 9.27633 5.596C11.867 3.76466 14.7703 2.40233 17.9863 1.509C21.247 0.615663 24.4853 0.168996 27.7013 0.168996C28.282 0.168996 29.0637 0.213663 30.0463 0.302998C31.0737 0.347664 32.101 0.436997 33.1283 0.570998C34.2003 0.704997 35.183 0.861329 36.0763 1.04C37.0143 1.21866 37.6843 1.41966 38.0863 1.643C38.3097 1.73233 38.265 1.911 37.9523 2.179C37.6397 2.40233 37.3717 2.49166 37.1483 2.447C35.585 2.313 34.0217 2.13433 32.4583 1.911C30.895 1.68766 29.3093 1.576 27.7013 1.576C24.4407 1.576 21.3587 1.978 18.4553 2.782C15.552 3.586 13.006 4.83666 10.8173 6.534C8.62866 8.23133 6.88666 10.3977 5.59133 13.033C4.29599 15.6237 3.64833 18.7057 3.64833 22.279C3.64833 24.557 4.00566 26.6563 4.72033 28.577C5.43499 30.453 6.41766 32.128 7.66833 33.602C8.96366 35.076 10.5047 36.3267 12.2913 37.354C14.078 38.3813 16.0657 39.1407 18.2543 39.632C18.969 37.3093 19.9517 34.875 21.2023 32.329C22.4977 29.783 23.994 27.304 25.6913 24.892C27.4333 22.4353 29.354 20.0903 31.4533 17.857C33.5527 15.6237 35.786 13.6807 38.1533 12.028C40.5653 10.3307 43.089 8.99067 45.7243 8.008C48.3597 7.02533 51.062 6.534 53.8313 6.534C55.3947 6.534 56.9133 6.735 58.3873 7.137C59.906 7.539 61.246 8.16433 62.4073 9.013C63.5687 9.86166 64.5067 10.956 65.2213 12.296C65.936 13.5913 66.2933 15.1547 66.2933 16.986ZM106.042 32.597C106.042 33.133 105.908 33.7807 105.64 34.54C105.417 35.2993 105.171 35.9917 104.903 36.617L98.6051 51.625C98.2478 52.3843 97.8681 53.1883 97.4661 54.037C97.1088 54.8857 96.9301 55.5557 96.9301 56.047C96.9301 56.4937 96.9971 56.9627 97.1311 57.454C97.3098 57.9007 97.7118 58.124 98.3371 58.124C98.7838 58.124 99.2751 57.99 99.8111 57.722C100.347 57.4093 100.861 57.052 101.352 56.65C101.888 56.2033 102.379 55.779 102.826 55.377C103.317 54.9303 103.719 54.573 104.032 54.305C104.523 53.903 104.814 53.9477 104.903 54.439C104.992 54.9303 104.747 55.444 104.166 55.98C103.049 57.052 101.843 57.99 100.548 58.794C99.2975 59.598 97.8235 60 96.1261 60C94.8755 60 93.7588 59.6873 92.7761 59.062C91.8381 58.4367 91.3691 57.454 91.3691 56.114C91.3691 55.2207 91.5478 54.2603 91.9051 53.233C92.2625 52.161 92.7538 50.9103 93.3791 49.481L99.0071 35.947C99.2751 35.277 99.4761 34.54 99.6101 33.736C99.7888 32.8873 99.8335 32.1057 99.7441 31.391C99.6995 30.6317 99.5208 30.0063 99.2081 29.515C98.8955 28.979 98.4265 28.711 97.8011 28.711C97.2651 28.711 96.6845 28.8227 96.0591 29.046C95.4338 29.2693 94.7861 29.5597 94.1161 29.917C93.4908 30.2743 92.8655 30.721 92.2401 31.257C91.6595 31.7483 91.1458 32.262 90.6991 32.798C90.6991 32.9767 90.6321 33.2893 90.4981 33.736C90.4088 34.138 90.3195 34.4507 90.2301 34.674L79.6441 60H73.4801L83.5971 35.746C83.7758 35.344 83.9321 34.7633 84.0661 34.004C84.2448 33.2 84.3118 32.4183 84.2671 31.659C84.2671 30.855 84.1331 30.1627 83.8651 29.582C83.5971 29.0013 83.1505 28.711 82.5251 28.711C81.8998 28.711 81.2075 28.845 80.4481 29.113C79.6888 29.381 78.9071 29.7607 78.1031 30.252C77.3438 30.7433 76.6291 31.324 75.9591 31.994C75.3338 32.6193 74.8425 33.334 74.4851 34.138L63.6981 60H57.5341L68.3881 33.937C68.6115 33.4457 68.7901 32.9097 68.9241 32.329C69.0581 31.7037 69.1251 31.123 69.1251 30.587C69.1698 30.051 69.1028 29.6043 68.9241 29.247C68.7901 28.8897 68.5668 28.711 68.2541 28.711C67.5395 28.711 66.8918 28.8897 66.3111 29.247C65.7305 29.5597 65.1721 29.9617 64.6361 30.453C64.1001 30.8997 63.5865 31.391 63.0951 31.927C62.6038 32.463 62.1348 32.9543 61.6881 33.401C61.2415 33.7583 60.9288 33.7137 60.7501 33.267C60.6161 32.8203 60.7501 32.3513 61.1521 31.86C61.6435 31.2347 62.2018 30.6093 62.8271 29.984C63.4525 29.3587 64.1448 28.8003 64.9041 28.309C65.6635 27.773 66.4675 27.3487 67.3161 27.036C68.2095 26.6787 69.1475 26.5 70.1301 26.5C71.5595 26.5 72.7208 27.0137 73.6141 28.041C74.5075 29.0683 74.9095 30.2743 74.8201 31.659C75.3115 31.0783 75.8698 30.4977 76.4951 29.917C77.1651 29.2917 77.9021 28.7333 78.7061 28.242C79.5101 27.7507 80.3588 27.3487 81.2521 27.036C82.1455 26.6787 83.0835 26.5 84.0661 26.5C85.1828 26.5 86.1208 26.6787 86.8801 27.036C87.6841 27.3487 88.3318 27.7507 88.8231 28.242C89.3145 28.7333 89.6718 29.2693 89.8951 29.85C90.1631 30.4307 90.3418 30.9667 90.4311 31.458C90.9225 30.922 91.4585 30.3637 92.0391 29.783C92.6645 29.2023 93.3791 28.6663 94.1831 28.175C94.9871 27.6837 95.8805 27.2817 96.8631 26.969C97.8458 26.6563 98.9401 26.5 100.146 26.5C101.129 26.5 102 26.701 102.759 27.103C103.518 27.4603 104.121 27.9517 104.568 28.577C105.059 29.1577 105.417 29.8053 105.64 30.52C105.908 31.2347 106.042 31.927 106.042 32.597ZM137.428 33.267C137.428 32.061 137.227 31.0113 136.825 30.118C136.423 29.18 135.753 28.711 134.815 28.711C134.011 28.711 133.118 28.979 132.135 29.515C131.197 30.0063 130.281 30.6093 129.388 31.324C128.539 32.0387 127.78 32.798 127.11 33.602C126.44 34.3613 125.993 34.9867 125.77 35.478L118.4 53.032C118.311 53.2553 118.355 53.3447 118.534 53.3C118.713 53.2107 118.958 53.099 119.271 52.965C119.628 52.7863 119.986 52.63 120.343 52.496C120.745 52.3173 121.08 52.228 121.348 52.228C121.705 52.1833 122.107 52.1833 122.554 52.228C123.001 52.228 123.246 52.496 123.291 53.032C123.291 53.2107 123.224 53.5903 123.09 54.171C122.956 54.707 122.867 55.2653 122.822 55.846C122.822 56.4267 122.934 56.9627 123.157 57.454C123.38 57.9007 123.872 58.124 124.631 58.124C125.658 58.124 126.686 57.7443 127.713 56.985C128.74 56.181 129.723 55.1313 130.661 53.836C131.644 52.496 132.537 50.9773 133.341 49.28C134.145 47.5827 134.837 45.8183 135.418 43.987C136.043 42.1557 136.535 40.3243 136.892 38.493C137.249 36.617 137.428 34.875 137.428 33.267ZM143.592 33.334C143.592 36.148 143.123 39.1183 142.185 42.245C141.292 45.3717 139.974 48.2527 138.232 50.888C136.49 53.5233 134.368 55.712 131.867 57.454C129.366 59.1513 126.552 60 123.425 60C121.504 60 120.075 59.598 119.137 58.794C118.244 57.99 117.797 56.65 117.797 54.774L110.159 73.4H103.727L120.343 33.669C120.522 33.2223 120.678 32.7087 120.812 32.128C120.946 31.5473 121.013 31.0113 121.013 30.52C121.013 30.0287 120.924 29.6043 120.745 29.247C120.566 28.8897 120.276 28.711 119.874 28.711C119.293 28.711 118.713 28.8673 118.132 29.18C117.596 29.448 117.06 29.8053 116.524 30.252C115.988 30.654 115.452 31.123 114.916 31.659C114.425 32.195 113.956 32.6863 113.509 33.133C113.42 33.2223 113.286 33.267 113.107 33.267C112.973 33.2223 112.839 33.133 112.705 32.999C112.616 32.865 112.571 32.6863 112.571 32.463C112.616 32.2397 112.75 31.9493 112.973 31.592C113.732 30.6093 114.514 29.8053 115.318 29.18C116.167 28.51 116.971 27.974 117.73 27.572C118.534 27.17 119.271 26.902 119.941 26.768C120.611 26.5893 121.169 26.5 121.616 26.5C122.867 26.5 123.872 26.6787 124.631 27.036C125.39 27.3487 125.971 27.7507 126.373 28.242C126.775 28.7333 126.998 29.2917 127.043 29.917C127.132 30.5423 127.132 31.123 127.043 31.659C128.249 30.185 129.611 28.9567 131.13 27.974C132.693 26.9913 134.368 26.5 136.155 26.5C138.701 26.5 140.577 27.036 141.783 28.108C142.989 29.1353 143.592 30.8773 143.592 33.334ZM170.873 33.133C171.096 32.597 171.096 32.0833 170.873 31.592C170.65 31.056 170.292 30.587 169.801 30.185C169.354 29.7383 168.818 29.381 168.193 29.113C167.568 28.845 166.965 28.711 166.384 28.711C164.955 28.711 163.592 29.2023 162.297 30.185C161.046 31.123 159.863 32.3513 158.746 33.87C157.629 35.3887 156.624 37.1083 155.731 39.029C154.838 40.9497 154.056 42.8703 153.386 44.791C152.761 46.7117 152.269 48.543 151.912 50.285C151.599 51.9823 151.443 53.3893 151.443 54.506C151.443 55.578 151.778 56.4267 152.448 57.052C153.118 57.6773 153.833 57.99 154.592 57.99C155.083 57.99 155.798 57.6773 156.736 57.052C157.674 56.382 158.612 55.645 159.55 54.841C160.533 53.9923 161.404 53.1437 162.163 52.295C162.967 51.4463 163.458 50.821 163.637 50.419L170.873 33.133ZM168.394 53.635C168.26 53.9923 168.104 54.4167 167.925 54.908C167.791 55.3993 167.724 55.8907 167.724 56.382C167.724 56.8287 167.813 57.2307 167.992 57.588C168.215 57.9007 168.595 58.057 169.131 58.057C169.801 58.057 170.583 57.722 171.476 57.052C172.414 56.382 173.531 55.4663 174.826 54.305C175.049 54.1263 175.25 54.2157 175.429 54.573C175.608 54.8857 175.541 55.1983 175.228 55.511C174.781 56.047 174.268 56.6053 173.687 57.186C173.106 57.722 172.414 58.2133 171.61 58.66C170.851 59.062 169.957 59.4193 168.93 59.732C167.947 60 166.808 60.134 165.513 60.134C164.441 60.134 163.637 59.933 163.101 59.531C162.565 59.0843 162.208 58.5483 162.029 57.923C161.895 57.2977 161.873 56.6277 161.962 55.913C162.051 55.1537 162.185 54.4613 162.364 53.836C161.694 54.506 160.935 55.2207 160.086 55.98C159.282 56.7393 158.411 57.454 157.473 58.124C156.535 58.7493 155.575 59.2853 154.592 59.732C153.609 60.1787 152.627 60.402 151.644 60.402C149.634 60.402 148.16 59.9107 147.222 58.928C146.329 57.9007 145.882 56.248 145.882 53.97C145.882 52.0493 146.105 50.0393 146.552 47.94C147.043 45.8407 147.736 43.786 148.629 41.776C149.522 39.7213 150.617 37.7783 151.912 35.947C153.207 34.071 154.659 32.4407 156.267 31.056C157.875 29.6713 159.617 28.577 161.493 27.773C163.414 26.9243 165.446 26.5 167.59 26.5C168.751 26.5 169.734 26.902 170.538 27.706C171.387 28.4653 171.923 29.4703 172.146 30.721L173.553 27.505H179.516L168.394 53.635ZM206.28 32.463C206.28 31.3463 205.9 30.453 205.141 29.783C204.382 29.0683 203.421 28.711 202.26 28.711C201.322 28.711 200.295 29.113 199.178 29.917C198.106 30.6763 197.012 31.7037 195.895 32.999C194.823 34.2943 193.773 35.7907 192.746 37.488C191.763 39.1853 190.87 40.972 190.066 42.848C189.307 44.6793 188.681 46.5107 188.19 48.342C187.743 50.1733 187.52 51.893 187.52 53.501C187.52 54.7517 187.699 55.846 188.056 56.784C188.413 57.6773 188.994 58.124 189.798 58.124C191.317 58.124 192.791 57.655 194.22 56.717C195.649 55.779 196.967 54.573 198.173 53.099C199.379 51.5803 200.473 49.883 201.456 48.007C202.483 46.131 203.354 44.255 204.069 42.379C204.784 40.4583 205.32 38.627 205.677 36.885C206.079 35.143 206.28 33.669 206.28 32.463ZM203.868 56.181C202.93 58.3697 201.88 60.4467 200.719 62.412C199.558 64.422 198.195 66.1863 196.632 67.705C195.069 69.2237 193.26 70.4297 191.205 71.323C189.195 72.2163 186.85 72.663 184.17 72.663C183.455 72.663 182.607 72.6183 181.624 72.529C180.641 72.4843 179.703 72.328 178.81 72.06C177.872 71.792 177.09 71.39 176.465 70.854C175.84 70.318 175.527 69.5587 175.527 68.576C175.527 67.6827 175.795 67.0573 176.331 66.7C176.867 66.3427 177.582 66.164 178.475 66.164C179.547 66.164 180.306 66.4097 180.753 66.901C181.244 67.3923 181.624 67.9283 181.892 68.509C182.205 69.0897 182.517 69.6257 182.83 70.117C183.143 70.6083 183.679 70.854 184.438 70.854C186.18 70.854 187.721 70.385 189.061 69.447C190.401 68.5537 191.562 67.3923 192.545 65.963C193.572 64.5783 194.443 63.0597 195.158 61.407C195.917 59.7543 196.565 58.2133 197.101 56.784C196.029 57.5433 194.778 58.2803 193.349 58.995C191.964 59.7097 190.468 60.067 188.86 60.067C186.448 60.067 184.639 59.4193 183.433 58.124C182.272 56.8287 181.691 54.975 181.691 52.563C181.691 50.9103 181.914 49.1237 182.361 47.203C182.852 45.2823 183.522 43.3617 184.371 41.441C185.264 39.5203 186.314 37.6667 187.52 35.88C188.771 34.0487 190.133 32.4407 191.607 31.056C193.126 29.6713 194.734 28.577 196.431 27.773C198.173 26.9243 199.982 26.5 201.858 26.5C203.913 26.5 205.387 26.902 206.28 27.706C207.173 28.4653 207.888 29.515 208.424 30.855L210.166 26.835H216.263L203.868 56.181ZM240.919 53.903C240.74 54.305 240.584 54.7517 240.45 55.243C240.316 55.7343 240.249 56.181 240.249 56.583C240.294 56.985 240.405 57.3423 240.584 57.655C240.807 57.923 241.187 58.057 241.723 58.057C242.125 58.057 242.594 57.9007 243.13 57.588C243.711 57.2753 244.269 56.918 244.805 56.516C245.341 56.0693 245.855 55.6227 246.346 55.176C246.837 54.7293 247.239 54.372 247.552 54.104C247.731 53.9253 247.932 53.9923 248.155 54.305C248.378 54.573 248.334 54.8857 248.021 55.243C246.636 56.8063 245.274 57.99 243.934 58.794C242.639 59.598 240.986 60 238.976 60C237.279 60 236.028 59.4417 235.224 58.325C234.465 57.2083 234.331 55.8907 234.822 54.372C234.197 55.0867 233.527 55.779 232.812 56.449C232.097 57.119 231.293 57.722 230.4 58.258C229.507 58.794 228.479 59.2183 227.318 59.531C226.201 59.8437 224.906 60 223.432 60C222.271 60 221.31 59.7543 220.551 59.263C219.836 58.727 219.3 58.057 218.943 57.253C218.63 56.4043 218.496 55.444 218.541 54.372C218.63 53.2553 218.921 52.1163 219.412 50.955L227.117 32.262C227.251 31.994 227.407 31.659 227.586 31.257C227.765 30.8103 227.876 30.4083 227.921 30.051C228.01 29.6937 227.988 29.381 227.854 29.113C227.765 28.845 227.474 28.711 226.983 28.711C226.447 28.711 225.889 28.8897 225.308 29.247C224.727 29.5597 224.169 29.9617 223.633 30.453C223.097 30.8997 222.583 31.4133 222.092 31.994C221.645 32.53 221.288 32.999 221.02 33.401C220.975 33.4903 220.864 33.535 220.685 33.535C220.551 33.535 220.395 33.5127 220.216 33.468C220.082 33.3787 219.97 33.267 219.881 33.133C219.792 32.999 219.792 32.865 219.881 32.731C221.176 30.855 222.628 29.3363 224.236 28.175C225.889 27.0137 227.921 26.433 230.333 26.433C232.388 26.433 233.571 26.969 233.884 28.041C234.241 29.0683 234.063 30.4753 233.348 32.262L225.241 51.625C225.018 52.161 224.817 52.8087 224.638 53.568C224.459 54.2827 224.37 54.975 224.37 55.645C224.37 56.315 224.482 56.8957 224.705 57.387C224.973 57.8783 225.442 58.124 226.112 58.124C227.229 58.124 228.368 57.789 229.529 57.119C230.69 56.449 231.762 55.6227 232.745 54.64C233.728 53.6573 234.599 52.63 235.358 51.558C236.117 50.486 236.653 49.548 236.966 48.744L243.666 32.731C244.023 31.8377 243.867 31.0337 243.197 30.319C242.84 29.917 242.773 29.649 242.996 29.515C243.219 29.381 243.532 29.2247 243.934 29.046L251.639 25.964C252.13 25.7853 252.443 25.7183 252.577 25.763C252.756 25.763 252.823 25.8523 252.778 26.031C252.778 26.165 252.689 26.366 252.51 26.634C252.376 26.8573 252.242 27.1253 252.108 27.438L240.919 53.903ZM261.495 59.933C259.664 59.8883 258.19 59.464 257.073 58.66C256.001 57.8113 255.175 56.7393 254.594 55.444C254.014 54.1487 253.656 52.697 253.522 51.089C253.388 49.4363 253.388 47.806 253.522 46.198C253.656 44.59 253.88 43.0713 254.192 41.642C254.505 40.2127 254.818 39.029 255.13 38.091C256.381 34.5177 257.922 30.922 259.753 27.304C261.629 23.6413 263.684 20.3137 265.917 17.321C268.151 14.3283 270.496 11.8717 272.952 9.951C275.409 8.03033 277.888 6.98067 280.389 6.802C281.729 6.71266 282.98 6.735 284.141 6.869C285.303 7.003 286.308 7.338 287.156 7.874C288.005 8.41 288.63 9.19166 289.032 10.219C289.434 11.2463 289.568 12.5863 289.434 14.239C289.256 16.2043 288.563 17.924 287.357 19.398C286.151 20.8273 284.767 22.0557 283.203 23.083C281.64 24.1103 280.054 24.9367 278.446 25.562C276.838 26.1873 275.565 26.6117 274.627 26.835C274.806 26.9243 274.962 27.036 275.096 27.17C275.23 27.2593 275.364 27.3487 275.498 27.438C277.285 28.7333 278.536 30.4083 279.25 32.463C279.965 34.473 280.233 36.6617 280.054 39.029C279.876 41.3517 279.273 43.719 278.245 46.131C277.263 48.4983 275.967 50.687 274.359 52.697C272.751 54.6623 270.853 56.315 268.664 57.655C266.476 58.9503 264.086 59.7097 261.495 59.933ZM262.433 57.789C264.041 57.6103 265.515 56.8733 266.855 55.578C268.24 54.2827 269.424 52.697 270.406 50.821C271.389 48.9003 272.171 46.8233 272.751 44.59C273.377 42.3567 273.689 40.1903 273.689 38.091C273.689 35.947 273.354 34.004 272.684 32.262C272.059 30.52 271.054 29.2247 269.669 28.376C269.312 28.2867 268.955 28.2197 268.597 28.175C268.24 28.1303 267.86 28.0857 267.458 28.041C267.324 28.041 267.235 27.9517 267.19 27.773C267.146 27.5943 267.146 27.4157 267.19 27.237C267.235 27.0137 267.324 26.8127 267.458 26.634C267.592 26.4553 267.793 26.366 268.061 26.366C269.58 26.4107 271.032 26.2767 272.416 25.964C273.801 25.6067 275.096 25.1377 276.302 24.557C277.285 24.0657 278.245 23.3287 279.183 22.346C280.166 21.3633 281.015 20.269 281.729 19.063C282.444 17.857 283.025 16.6287 283.471 15.378C283.918 14.1273 284.119 13.0107 284.074 12.028C284.074 11.0007 283.762 10.1967 283.136 9.616C282.556 9.03533 281.618 8.78966 280.322 8.879C279.295 8.96833 278.201 9.482 277.039 10.42C275.878 11.358 274.672 12.631 273.421 14.239C272.171 15.8023 270.898 17.6113 269.602 19.666C268.352 21.7207 267.146 23.9317 265.984 26.299C264.823 28.6217 263.773 31.0113 262.835 33.468C261.897 35.9247 261.093 38.3367 260.423 40.704C260.021 42.2673 259.686 43.987 259.418 45.863C259.195 47.739 259.128 49.5257 259.217 51.223C259.307 52.8757 259.597 54.3273 260.088 55.578C260.624 56.784 261.406 57.521 262.433 57.789ZM310.298 33.133C310.522 32.597 310.522 32.0833 310.298 31.592C310.075 31.056 309.718 30.587 309.226 30.185C308.78 29.7383 308.244 29.381 307.618 29.113C306.993 28.845 306.39 28.711 305.809 28.711C304.38 28.711 303.018 29.2023 301.722 30.185C300.472 31.123 299.288 32.3513 298.171 33.87C297.055 35.3887 296.05 37.1083 295.156 39.029C294.263 40.9497 293.481 42.8703 292.811 44.791C292.186 46.7117 291.695 48.543 291.337 50.285C291.025 51.9823 290.868 53.3893 290.868 54.506C290.868 55.578 291.203 56.4267 291.873 57.052C292.543 57.6773 293.258 57.99 294.017 57.99C294.509 57.99 295.223 57.6773 296.161 57.052C297.099 56.382 298.037 55.645 298.975 54.841C299.958 53.9923 300.829 53.1437 301.588 52.295C302.392 51.4463 302.884 50.821 303.062 50.419L310.298 33.133ZM307.819 53.635C307.685 53.9923 307.529 54.4167 307.35 54.908C307.216 55.3993 307.149 55.8907 307.149 56.382C307.149 56.8287 307.239 57.2307 307.417 57.588C307.641 57.9007 308.02 58.057 308.556 58.057C309.226 58.057 310.008 57.722 310.901 57.052C311.839 56.382 312.956 55.4663 314.251 54.305C314.475 54.1263 314.676 54.2157 314.854 54.573C315.033 54.8857 314.966 55.1983 314.653 55.511C314.207 56.047 313.693 56.6053 313.112 57.186C312.532 57.722 311.839 58.2133 311.035 58.66C310.276 59.062 309.383 59.4193 308.355 59.732C307.373 60 306.234 60.134 304.938 60.134C303.866 60.134 303.062 59.933 302.526 59.531C301.99 59.0843 301.633 58.5483 301.454 57.923C301.32 57.2977 301.298 56.6277 301.387 55.913C301.477 55.1537 301.611 54.4613 301.789 53.836C301.119 54.506 300.36 55.2207 299.511 55.98C298.707 56.7393 297.836 57.454 296.898 58.124C295.96 58.7493 295 59.2853 294.017 59.732C293.035 60.1787 292.052 60.402 291.069 60.402C289.059 60.402 287.585 59.9107 286.647 58.928C285.754 57.9007 285.307 56.248 285.307 53.97C285.307 52.0493 285.531 50.0393 285.977 47.94C286.469 45.8407 287.161 43.786 288.054 41.776C288.948 39.7213 290.042 37.7783 291.337 35.947C292.633 34.071 294.084 32.4407 295.692 31.056C297.3 29.6713 299.042 28.577 300.918 27.773C302.839 26.9243 304.871 26.5 307.015 26.5C308.177 26.5 309.159 26.902 309.963 27.706C310.812 28.4653 311.348 29.4703 311.571 30.721L312.978 27.505H318.941L307.819 53.635ZM350.328 33.267C350.328 32.061 350.127 31.0113 349.725 30.118C349.323 29.18 348.653 28.711 347.715 28.711C346.911 28.711 346.018 28.979 345.035 29.515C344.097 30.0063 343.182 30.6093 342.288 31.324C341.44 32.0387 340.68 32.798 340.01 33.602C339.34 34.3613 338.894 34.9867 338.67 35.478L331.3 53.032C331.211 53.2553 331.256 53.3447 331.434 53.3C331.613 53.2107 331.859 53.099 332.171 52.965C332.529 52.7863 332.886 52.63 333.243 52.496C333.645 52.3173 333.98 52.228 334.248 52.228C334.606 52.1833 335.008 52.1833 335.454 52.228C335.901 52.228 336.147 52.496 336.191 53.032C336.191 53.2107 336.124 53.5903 335.99 54.171C335.856 54.707 335.767 55.2653 335.722 55.846C335.722 56.4267 335.834 56.9627 336.057 57.454C336.281 57.9007 336.772 58.124 337.531 58.124C338.559 58.124 339.586 57.7443 340.613 56.985C341.641 56.181 342.623 55.1313 343.561 53.836C344.544 52.496 345.437 50.9773 346.241 49.28C347.045 47.5827 347.738 45.8183 348.318 43.987C348.944 42.1557 349.435 40.3243 349.792 38.493C350.15 36.617 350.328 34.875 350.328 33.267ZM356.492 33.334C356.492 36.148 356.023 39.1183 355.085 42.245C354.192 45.3717 352.874 48.2527 351.132 50.888C349.39 53.5233 347.269 55.712 344.767 57.454C342.266 59.1513 339.452 60 336.325 60C334.405 60 332.975 59.598 332.037 58.794C331.144 57.99 330.697 56.65 330.697 54.774L323.059 73.4H316.627L333.243 33.669C333.422 33.2223 333.578 32.7087 333.712 32.128C333.846 31.5473 333.913 31.0113 333.913 30.52C333.913 30.0287 333.824 29.6043 333.645 29.247C333.467 28.8897 333.176 28.711 332.774 28.711C332.194 28.711 331.613 28.8673 331.032 29.18C330.496 29.448 329.96 29.8053 329.424 30.252C328.888 30.654 328.352 31.123 327.816 31.659C327.325 32.195 326.856 32.6863 326.409 33.133C326.32 33.2223 326.186 33.267 326.007 33.267C325.873 33.2223 325.739 33.133 325.605 32.999C325.516 32.865 325.471 32.6863 325.471 32.463C325.516 32.2397 325.65 31.9493 325.873 31.592C326.633 30.6093 327.414 29.8053 328.218 29.18C329.067 28.51 329.871 27.974 330.63 27.572C331.434 27.17 332.171 26.902 332.841 26.768C333.511 26.5893 334.07 26.5 334.516 26.5C335.767 26.5 336.772 26.6787 337.531 27.036C338.291 27.3487 338.871 27.7507 339.273 28.242C339.675 28.7333 339.899 29.2917 339.943 29.917C340.033 30.5423 340.033 31.123 339.943 31.659C341.149 30.185 342.512 28.9567 344.03 27.974C345.594 26.9913 347.269 26.5 349.055 26.5C351.601 26.5 353.477 27.036 354.683 28.108C355.889 29.1353 356.492 30.8773 356.492 33.334ZM382.634 53.903C382.456 54.305 382.299 54.7517 382.165 55.243C382.031 55.7343 381.964 56.181 381.964 56.583C382.009 56.985 382.121 57.3423 382.299 57.655C382.523 57.923 382.902 58.057 383.438 58.057C383.84 58.057 384.309 57.9007 384.845 57.588C385.426 57.2753 385.984 56.918 386.52 56.516C387.056 56.0693 387.57 55.6227 388.061 55.176C388.553 54.7293 388.955 54.372 389.267 54.104C389.446 53.9253 389.647 53.9923 389.87 54.305C390.094 54.573 390.049 54.8857 389.736 55.243C388.352 56.8063 386.989 57.99 385.649 58.794C384.354 59.598 382.701 60 380.691 60C378.994 60 377.743 59.4417 376.939 58.325C376.18 57.2083 376.046 55.8907 376.537 54.372C375.912 55.0867 375.242 55.779 374.527 56.449C373.813 57.119 373.009 57.722 372.115 58.258C371.222 58.794 370.195 59.2183 369.033 59.531C367.917 59.8437 366.621 60 365.147 60C363.986 60 363.026 59.7543 362.266 59.263C361.552 58.727 361.016 58.057 360.658 57.253C360.346 56.4043 360.212 55.444 360.256 54.372C360.346 53.2553 360.636 52.1163 361.127 50.955L368.832 32.262C368.966 31.994 369.123 31.659 369.301 31.257C369.48 30.8103 369.592 30.4083 369.636 30.051C369.726 29.6937 369.703 29.381 369.569 29.113C369.48 28.845 369.19 28.711 368.698 28.711C368.162 28.711 367.604 28.8897 367.023 29.247C366.443 29.5597 365.884 29.9617 365.348 30.453C364.812 30.8997 364.299 31.4133 363.807 31.994C363.361 32.53 363.003 32.999 362.735 33.401C362.691 33.4903 362.579 33.535 362.4 33.535C362.266 33.535 362.11 33.5127 361.931 33.468C361.797 33.3787 361.686 33.267 361.596 33.133C361.507 32.999 361.507 32.865 361.596 32.731C362.892 30.855 364.343 29.3363 365.951 28.175C367.604 27.0137 369.636 26.433 372.048 26.433C374.103 26.433 375.287 26.969 375.599 28.041C375.957 29.0683 375.778 30.4753 375.063 32.262L366.956 51.625C366.733 52.161 366.532 52.8087 366.353 53.568C366.175 54.2827 366.085 54.975 366.085 55.645C366.085 56.315 366.197 56.8957 366.42 57.387C366.688 57.8783 367.157 58.124 367.827 58.124C368.944 58.124 370.083 57.789 371.244 57.119C372.406 56.449 373.478 55.6227 374.46 54.64C375.443 53.6573 376.314 52.63 377.073 51.558C377.833 50.486 378.369 49.548 378.681 48.744L385.381 32.731C385.739 31.8377 385.582 31.0337 384.912 30.319C384.555 29.917 384.488 29.649 384.711 29.515C384.935 29.381 385.247 29.2247 385.649 29.046L393.354 25.964C393.846 25.7853 394.158 25.7183 394.292 25.763C394.471 25.763 394.538 25.8523 394.493 26.031C394.493 26.165 394.404 26.366 394.225 26.634C394.091 26.8573 393.957 27.1253 393.823 27.438L382.634 53.903Z" fill="#BE9E68"/>
</g>
<rect x="30" y="85" width="150" height="1" rx="0.5" fill="#BE9E68"/>
<rect x="215" y="85" width="150" height="1" rx="0.5" fill="#BE9E68"/>
<circle cx="197.5" cy="85.5" r="1.5" fill="#BE9E68"/>
<defs>
<filter id="filter0_d" x="0.499329" y="0.168945" width="394.007" height="74.231" filterUnits="userSpaceOnUse" color-interpolation-filters="sRGB">
<feFlood flood-opacity="0" result="BackgroundImageFix"/>
<feColorMatrix in="SourceAlpha" type="matrix" values="0 0 0 0 0 0 0 0 0 0 0 0 0 0 0 0 0 0 127 0"/>
<feOffset dy="1"/>
<feColorMatrix type="matrix" values="0 0 0 0 0 0 0 0 0 0 0 0 0 0 0 0 0 0 1 0"/>
<feBlend mode="normal" in2="BackgroundImageFix" result="effect1_dropShadow"/>
<feBlend mode="normal" in="SourceGraphic" in2="effect1_dropShadow" result="shape"/>
</filter>
</defs>
</svg>
