<svg width="50" height="50" viewBox="0 0 50 50" fill="none" xmlns="http://www.w3.org/2000/svg">
<g clip-path="url(#clip0)">
<path d="M17.358 37.1787C17.2615 37.3542 17.112 37.4069 16.9716 37.4069C16.8312 37.4069 16.6908 37.3542 16.5943 37.1787L15.5846 35.2825V39.1273C15.5846 39.3646 15.295 39.4874 15.0143 39.4874C14.7244 39.4874 14.4436 39.3646 14.4436 39.1273V33.6406C14.4436 33.2195 14.7244 33.0703 15.0143 33.0703C15.4267 33.0703 15.6113 33.1581 15.9008 33.6757L16.9808 35.6422L18.0603 33.6757C18.3502 33.1581 18.5433 33.0703 18.956 33.0703C19.2455 33.0703 19.5263 33.2195 19.5263 33.6406V39.1273C19.5263 39.3646 19.2368 39.4874 18.956 39.4874C18.6661 39.4874 18.3853 39.3646 18.3853 39.1273V35.3526L17.358 37.1787Z" fill="#7B2424"/>
<path d="M22.7036 35.8263H24.0379C24.2661 35.8263 24.3977 36.046 24.3977 36.2829C24.3977 36.4847 24.2836 36.722 24.0379 36.722H22.7036V38.4863H25.1877C25.4162 38.4863 25.5478 38.7232 25.5478 38.9956C25.5478 39.2325 25.4337 39.4873 25.1877 39.4873H22.0627C21.8082 39.4873 21.5622 39.3641 21.5622 39.1272V33.4299C21.5622 33.193 21.8079 33.0698 22.0627 33.0698H25.1877C25.4337 33.0698 25.5478 33.3246 25.5478 33.5615C25.5478 33.8339 25.4162 34.0708 25.1877 34.0708H22.7036V35.8263Z" fill="#7B2424"/>
<path d="M30.2265 39.1272L28.339 35.5982V39.1272C28.339 39.3645 28.0495 39.4873 27.7683 39.4873C27.4788 39.4873 27.1976 39.3645 27.1976 39.1272V33.4299C27.1976 33.1843 27.4788 33.0702 27.7683 33.0702C28.1811 33.0702 28.3478 33.1579 28.6201 33.6756L30.3142 36.9501V33.4212C30.3142 33.1755 30.595 33.0698 30.8849 33.0698C31.1657 33.0698 31.4552 33.1751 31.4552 33.4212V39.1272C31.4552 39.3641 31.1657 39.4873 30.8849 39.4873C30.6125 39.4873 30.3757 39.3995 30.2265 39.1272Z" fill="#7B2424"/>
<path d="M36.5379 33.4213C36.5379 33.1756 36.8187 33.0703 37.1082 33.0703C37.3894 33.0703 37.6789 33.1756 37.6789 33.4213V37.5297C37.6789 38.9957 36.7485 39.54 35.5721 39.54C34.3868 39.54 33.4652 38.9957 33.4652 37.5297V33.4213C33.4652 33.1756 33.746 33.0703 34.0359 33.0703C34.3167 33.0703 34.6062 33.1756 34.6062 33.4213V37.5297C34.6062 38.2144 34.9663 38.5394 35.5721 38.5394C36.1778 38.5394 36.5376 38.2144 36.5376 37.5297V33.4213H36.5379Z" fill="#7B2424"/>
<path d="M38.7947 41.2256H34.6218C34.2121 41.2256 33.8802 41.5575 33.8802 41.9668C33.8802 42.3765 34.2121 42.708 34.6218 42.708H38.7947C39.2044 42.708 39.5359 42.3765 39.5359 41.9668C39.5359 41.5575 39.2044 41.2256 38.7947 41.2256Z" fill="#7B2424"/>
<path d="M31.1725 41.2256H14.2837C13.8744 41.2256 13.5425 41.5575 13.5425 41.9668C13.5425 42.3765 13.8744 42.708 14.2837 42.708H31.1725C31.5822 42.708 31.9137 42.3765 31.9137 41.9668C31.9137 41.5575 31.5822 41.2256 31.1725 41.2256Z" fill="#7B2424"/>
<path d="M38.7947 29.9062H14.2837C13.8744 29.9062 13.5425 30.2381 13.5425 30.6474C13.5425 31.0568 13.8744 31.3886 14.2837 31.3886H38.7947C39.2044 31.3886 39.5359 31.0568 39.5359 30.6474C39.5359 30.2381 39.2044 29.9062 38.7947 29.9062Z" fill="#7B2424"/>
<path d="M38.3823 20.7159H37.6629C37.3852 15.6084 33.6517 11.4054 28.7655 10.4105L28.9085 9.04294C28.9554 8.59662 28.8097 8.14954 28.5095 7.81651C28.2093 7.48311 27.7798 7.29199 27.3311 7.29199H25.7477C25.2987 7.29199 24.8695 7.48349 24.5689 7.81651C24.2687 8.14992 24.1234 8.597 24.1703 9.04294L24.3133 10.4105C19.4271 11.4054 15.6936 15.608 15.4159 20.7155H14.6965C14.0602 20.7155 13.5425 21.2332 13.5425 21.8695V23.3992C13.5425 24.0355 14.0602 24.5531 14.6965 24.5531H38.3819C39.0182 24.5531 39.5359 24.0355 39.5359 23.3992V21.8695C39.5359 21.2336 39.0186 20.7159 38.3823 20.7159ZM25.6706 8.80872C25.6912 8.78621 25.7168 8.77477 25.7477 8.77477H27.3311C27.3617 8.77477 27.3876 8.78621 27.4082 8.80872C27.4288 8.8316 27.4376 8.85869 27.4341 8.88882L27.2957 10.2133C27.0458 10.1965 26.7937 10.187 26.5396 10.187C26.2852 10.187 26.0334 10.1965 25.7835 10.2133L25.6447 8.88882C25.6416 8.85869 25.6504 8.8316 25.6706 8.80872ZM38.0535 23.0707H15.0253V22.1983H18.1492C18.5589 22.1983 18.8907 21.8664 18.8907 21.4571C18.8907 21.0478 18.5589 20.7159 18.1492 20.7159H16.9014C17.218 15.6744 21.4195 11.6697 26.5392 11.6697C31.6593 11.6697 35.8608 15.6744 36.1774 20.7159H21.5984C21.1887 20.7159 20.8572 21.0478 20.8572 21.4571C20.8572 21.8664 21.1887 22.1983 21.5984 22.1983H38.0535V23.0707Z" fill="#7B2424"/>
<path d="M44.0903 0H8.98857C7.94792 0 7.10106 0.846863 7.10106 1.88751V3.22647H6.40945C5.13687 3.22647 4.10156 4.26216 4.10156 5.53474C4.10156 6.80733 5.13687 7.84302 6.40945 7.84302H7.10106V11.0126H6.40945C5.13687 11.0126 4.10156 12.048 4.10156 13.3209C4.10156 14.5935 5.13687 15.6288 6.40945 15.6288H7.10106V18.7988H6.40945C5.13687 18.7988 4.10156 19.8341 4.10156 21.1071C4.10156 22.3797 5.13687 23.415 6.40945 23.415H7.10106V26.585H6.40945C5.13687 26.585 4.10156 27.6203 4.10156 28.8929C4.10156 30.1659 5.13687 31.2012 6.40945 31.2012H7.10106V34.3712H6.40945C5.13687 34.3712 4.10156 35.4065 4.10156 36.6791C4.10156 37.952 5.13687 38.9874 6.40945 38.9874H7.10106V42.1574H6.40945C5.13687 42.1574 4.10156 43.1927 4.10156 44.4653C4.10156 45.7378 5.13687 46.7735 6.40945 46.7735H7.10106V48.1125C7.10106 49.1531 7.94792 50 8.98857 50H44.0903C45.1309 50 45.9782 49.1531 45.9782 48.1125V1.88751C45.9782 0.846863 45.1309 0 44.0903 0V0ZM7.10068 6.36063H6.40945C5.95436 6.36063 5.58395 5.99022 5.58395 5.53474C5.58395 5.07965 5.95436 4.70924 6.40945 4.70924H7.10068V6.36063ZM7.10068 14.1464H6.40945C5.95436 14.1464 5.58395 13.776 5.58395 13.3209C5.58395 12.8654 5.95436 12.4954 6.40945 12.4954H7.10068V14.1464ZM7.10068 21.9326H6.40945C5.95436 21.9326 5.58395 21.5622 5.58395 21.1071C5.58395 20.6516 5.95436 20.2812 6.40945 20.2812H7.10068V21.9326ZM7.10068 29.7188H6.40945C5.95436 29.7188 5.58395 29.3484 5.58395 28.8929C5.58395 28.4378 5.95436 28.0674 6.40945 28.0674H7.10068V29.7188ZM7.10068 37.5046H6.40945C5.95436 37.5046 5.58395 37.1346 5.58395 36.6791C5.58395 36.224 5.95436 35.8536 6.40945 35.8536H7.10068V37.5046ZM7.10068 45.2908H6.40945C5.95436 45.2908 5.58395 44.9203 5.58395 44.4653C5.58395 44.0098 5.95436 43.6398 6.40945 43.6398H7.10068V45.2908ZM44.4954 48.1121C44.4954 48.3356 44.3138 48.5176 44.0903 48.5176H8.98857C8.76503 48.5176 8.58345 48.3356 8.58345 48.1121V1.88751C8.58345 1.66435 8.76503 1.48239 8.98857 1.48239H44.0903C44.3138 1.48239 44.4954 1.66435 44.4954 1.88751V48.1121Z" fill="#7B2424"/>
</g>
<defs>
<clipPath id="clip0">
<rect width="50" height="50.0001" fill="white"/>
</clipPath>
</defs>
</svg>
