<svg width="19" height="20" viewBox="0 0 19 20" fill="none" xmlns="http://www.w3.org/2000/svg">
<path fill-rule="evenodd" clip-rule="evenodd" d="M10.1413 4.64269L13.9322 8.43363C14.2523 8.75371 14.7925 8.53366 14.7925 8.08355V6.2931H18.2933C18.5734 6.2931 18.7935 6.07305 18.7935 5.79298V2.79223C18.7935 2.51216 18.5734 2.2921 18.2933 2.2921L14.7925 2.2921V0.50166C14.7925 0.0515477 14.2523 -0.168508 13.9422 0.151572L10.1513 3.94252C9.95126 4.13256 9.95126 4.45264 10.1413 4.64269ZM13.6671 13.2647L16.2077 13.5548C17.218 13.6748 17.9781 14.525 17.9681 15.5353V17.2657C17.9681 18.396 17.0279 19.3362 15.8976 19.2662C7.36551 18.7361 0.533806 11.9144 0.00367439 3.37227C-0.066343 2.24199 0.873891 1.30176 2.00417 1.30176H3.7346C4.75486 1.30176 5.60507 2.06195 5.7251 3.0722L6.01517 5.59282C6.08519 6.20298 5.87513 6.80312 5.44503 7.23323L3.59457 9.08369C5.03493 11.9244 7.3555 14.235 10.1862 15.6753L12.0267 13.8349C12.4568 13.4048 13.0569 13.1947 13.6671 13.2647Z" fill="#FDFDFD"/>
</svg>
