<svg width="40" height="40" viewBox="0 0 40 40" fill="none" xmlns="http://www.w3.org/2000/svg">
<path opacity="0.6" fill-rule="evenodd" clip-rule="evenodd" d="M40 20C40 31.0457 31.0457 40 20 40C8.9543 40 0 31.0457 0 20C0 8.95431 8.9543 0 20 0C31.0457 0 40 8.95431 40 20ZM29.5045 15.1253C30.4713 15.0105 31.3933 14.7535 32.2504 14.3734C31.6097 15.3321 30.7993 16.1738 29.8645 16.8477C29.8738 17.0523 29.8784 17.2587 29.8784 17.4659C29.8784 23.7837 25.0697 31.0681 16.2765 31.0681C13.577 31.0681 11.0635 30.277 8.949 28.9201C9.32228 28.9647 9.70375 28.9871 10.0888 28.9871C12.3292 28.9871 14.3902 28.2231 16.0266 26.9407C13.9342 26.9018 12.1691 25.5196 11.5609 23.6208C11.8525 23.6764 12.1516 23.706 12.4604 23.706C12.8957 23.706 13.3189 23.6479 13.7196 23.5381C11.5331 23.0992 9.88451 21.1672 9.88451 18.8509C9.88451 18.831 9.88451 18.8106 9.88486 18.7903C10.5291 19.1493 11.2667 19.3643 12.05 19.3889C10.768 18.5319 9.92337 17.068 9.92337 15.4098C9.92337 14.5338 10.1594 13.7121 10.5708 13.0062C12.9288 15.8993 16.4516 17.8024 20.4246 18.0017C20.3426 17.6516 20.3002 17.2869 20.3002 16.9122C20.3002 14.2725 22.4411 12.1316 25.0808 12.1316C26.4566 12.1316 27.699 12.712 28.5711 13.6408C29.6595 13.4265 30.6831 13.029 31.6069 12.481C31.2493 13.598 30.4917 14.5338 29.5045 15.1253Z" fill="#FDFDFD"/>
</svg>
