<svg width="40" height="40" viewBox="0 0 40 40" fill="none" xmlns="http://www.w3.org/2000/svg">
<path opacity="0.6" fill-rule="evenodd" clip-rule="evenodd" d="M40 20C40 31.0457 31.0457 40 20 40C8.95431 40 0 31.0457 0 20C0 8.95431 8.95431 0 20 0C31.0457 0 40 8.95431 40 20ZM20.8143 28.7719H19.2445C19.2445 28.7719 15.7809 28.9804 12.7309 25.8049C9.40458 22.3413 6.46687 15.4684 6.46687 15.4684C6.46687 15.4684 6.29752 15.0177 6.48148 14.7999C6.68826 14.555 7.25156 14.5393 7.25156 14.5393L11.0039 14.5147C11.0039 14.5147 11.3576 14.5739 11.6107 14.7596C11.8193 14.9129 11.9362 15.1996 11.9362 15.1996C11.9362 15.1996 12.5427 16.7333 13.3459 18.1209C14.9135 20.8297 15.6437 21.4222 16.1759 21.132C16.9514 20.7088 16.7189 17.3027 16.7189 17.3027C16.7189 17.3027 16.7332 16.0662 16.3285 15.5158C16.0152 15.089 15.424 14.9646 15.1631 14.9297C14.952 14.9015 15.2986 14.4113 15.7478 14.1913C16.423 13.8605 17.6156 13.8416 19.0245 13.8562C20.1223 13.8672 20.4381 13.9357 20.8674 14.0394C21.8633 14.2799 21.8322 15.0504 21.7652 16.7129C21.7452 17.2096 21.722 17.786 21.722 18.4517C21.722 18.6015 21.7176 18.7611 21.7131 18.9254C21.6898 19.7768 21.6632 20.7516 22.2236 21.1138C22.5109 21.2992 23.214 21.1417 24.9723 18.1558C25.8059 16.7408 26.4309 15.0769 26.4309 15.0769C26.4309 15.0769 26.5674 14.7803 26.7795 14.653C26.9967 14.5232 27.2894 14.5632 27.2894 14.5632L31.2382 14.5386C31.2382 14.5386 32.4247 14.397 32.6168 14.9325C32.8183 15.4947 32.1733 16.8075 30.5601 18.9576C29.028 20.9996 28.2835 21.7501 28.3535 22.4149C28.4046 22.8995 28.8885 23.3386 29.8156 24.1992C31.7594 26.0034 32.2775 26.9507 32.4006 27.1759C32.4105 27.1941 32.4179 27.2076 32.4232 27.2164C33.2931 28.6589 31.4585 28.7719 31.4585 28.7719L27.9514 28.8207C27.9514 28.8207 27.1977 28.9701 26.2059 28.2888C25.6872 27.9328 25.1801 27.3514 24.6969 26.7975C23.9583 25.9508 23.2757 25.1681 22.6931 25.3529C21.7155 25.663 21.7462 27.7693 21.7462 27.7693C21.7462 27.7693 21.7533 28.2193 21.5305 28.4588C21.2884 28.7198 20.8143 28.7719 20.8143 28.7719Z" fill="#FDFDFD"/>
</svg>
