<svg width="50" height="50" viewBox="0 0 50 50" fill="none" xmlns="http://www.w3.org/2000/svg">
<path d="M14.0722 2.77783C10.0829 2.77783 6.83739 6.02324 6.83739 10.0126C6.83739 14.0019 10.0829 17.2474 14.0722 17.2474C18.0614 17.2474 21.3069 14.002 21.3069 10.0126C21.3068 6.02324 18.0614 2.77783 14.0722 2.77783ZM14.0722 15.6396C10.9695 15.6396 8.4451 13.1153 8.4451 10.0125C8.4451 6.90967 10.9694 4.38545 14.0722 4.38545C17.1749 4.38545 19.6992 6.90967 19.6992 10.0125C19.6992 13.1153 17.1748 15.6396 14.0722 15.6396Z" fill="#7B2424"/>
<path d="M13.9739 18.7476L9.31152 17.4248V24.0337L13.9739 22.8027L18.6363 24.0337V17.4248L13.9739 18.7476ZM17.0286 21.9465L13.9739 21.14L10.9192 21.9465V19.5521L13.9739 20.4188L17.0286 19.5521V21.9465Z" fill="#7B2424"/>
<path d="M36.1068 20.8771L31.0157 25.968L26.2591 21.2113C25.2974 20.2497 24.0192 19.7202 22.659 19.7202C22.659 19.7202 22.6583 19.7202 22.658 19.7202L20.4049 19.7207L20.4053 21.3284L22.6583 21.3279H22.6591C23.5896 21.3279 24.4644 21.6902 25.1222 22.3481L31.0155 28.2415L36.7724 22.4847H40.1458L30.9357 32.7406L23.6201 26.1176V48.3923H7.54298V39.0229H9.13292V46.4185H18.7971V39.0229H22.8164V32.7527H18.7971V31.949H9.13292V32.7527H7.54308V27.9298H5.93536V34.3605H9.13292V37.4153H7.54308H6.73927H3.22863V24.8147C3.22863 22.8944 4.79093 21.3318 6.71124 21.3313L6.71085 19.7236C3.90421 19.7243 1.62091 22.0081 1.62091 24.8147V39.0229H5.93546V50.0001H25.228V29.7419L31.0535 35.0159L43.7507 20.8771H36.1068ZM18.7971 34.3605H21.2087V37.4153H18.7971V34.3605ZM10.7406 33.5568H17.1894V44.8108H10.7406V33.5568Z" fill="#7B2424"/>
<path d="M47.1209 18.337C46.7343 13.7649 43.0819 10.1123 38.5184 9.74053V8.36914H36.9107V9.74697C32.3806 10.1508 28.7643 13.789 28.3797 18.337H27.0501V19.9447H28.3452H47.1555H48.3792V18.337H47.1209ZM29.9936 18.337C30.3962 14.399 33.7213 11.3167 37.7502 11.3167C41.7791 11.3167 45.1042 14.3991 45.5068 18.337H29.9936Z" fill="#7B2424"/>
<path d="M32.034 17.4796H33.6417C33.6417 15.7293 35.0601 14.3055 36.8035 14.3055V12.6978C34.1736 12.6978 32.034 14.8429 32.034 17.4796Z" fill="#7B2424"/>
<path d="M47.7363 3.37598H46.1286V4.98369H47.7363V3.37598Z" fill="#7B2424"/>
<path d="M47.7363 9.80713H46.1286V11.2541H47.7363V9.80713Z" fill="#7B2424"/>
<path d="M47.7363 6.5918H46.1286V8.19951H47.7363V6.5918Z" fill="#7B2424"/>
<path d="M44.6816 4.98389H43.0739V6.5916H44.6816V4.98389Z" fill="#7B2424"/>
<path d="M44.6816 1.76855H43.0739V3.37627H44.6816V1.76855Z" fill="#7B2424"/>
<path d="M41.4662 3.21533H39.8585V4.82305H41.4662V3.21533Z" fill="#7B2424"/>
<path d="M41.4662 0H39.8585V1.60771H41.4662V0Z" fill="#7B2424"/>
</svg>
