<svg width="50" height="50" viewBox="0 0 50 50" fill="none" xmlns="http://www.w3.org/2000/svg">
<g clip-path="url(#clip0)">
<path d="M45.6283 15.186C45.2608 15.0928 45.0028 14.7632 45 14.3844V0.833333C45 0.373128 44.6269 0 44.1667 0H39.1667C38.7065 0 38.3333 0.373128 38.3333 0.833333V14.3844C38.3305 14.7636 38.0717 15.0928 37.7043 15.186C35.1306 15.8525 33.3329 18.1746 33.3333 20.8333V49.1667C33.3333 49.6269 33.7065 50 34.1667 50H49.1667C49.6269 50 50 49.6269 50 49.1667V20.8333C50 18.1746 48.2023 15.8521 45.6283 15.186ZM40 1.66667H43.3333V3.33333H40V1.66667ZM48.3333 39.1667H35V27.5H48.3333V39.1667ZM35 48.3333V40.8333H48.3333V48.3333H35ZM48.3333 25.8333H35V20.8333C34.9992 18.9339 36.283 17.2746 38.1217 16.7985C39.2244 16.5153 39.9967 15.5229 40 14.3844V5H43.3333V14.3844C43.3354 15.5233 44.1077 16.5173 45.2108 16.8009C47.0487 17.2766 48.3329 18.9347 48.3333 20.8333V25.8333Z" fill="#7B2424"/>
<path d="M30.2323 18.634C28.9905 16.6475 28.3325 14.3518 28.3333 12.0093V0.833333C28.3333 0.373128 27.9602 0 27.5 0H22.5C22.0398 0 21.6667 0.373128 21.6667 0.833333V12.0093C21.6675 14.351 21.0103 16.6459 19.7693 18.6316L19.6533 18.8151C18.2455 21.0665 17.4992 23.6686 17.5 26.3241V49.1667C17.5 49.6269 17.8731 50 18.3333 50H31.6667C32.1269 50 32.5 49.6269 32.5 49.1667V26.3241C32.5004 23.6678 31.7537 21.0649 30.3451 18.8127L30.2323 18.634ZM23.3333 1.66667H26.6667V3.33333H23.3333V1.66667ZM30.8333 48.3333H19.1667V26.3241C19.1659 23.9823 19.823 21.6874 21.0641 19.7017L21.18 19.5182C22.5879 17.2668 23.3342 14.6647 23.3333 12.0093V5H26.6667V12.0093C26.6663 14.6655 27.4129 17.2685 28.8216 19.5207L28.9343 19.6993C30.1762 21.6858 30.8341 23.9815 30.8333 26.3241V48.3333Z" fill="#7B2424"/>
<path d="M25 29.1665C22.699 29.1665 20.8333 31.0321 20.8333 33.3332C20.8333 35.6342 22.699 37.4998 25 37.4998C27.301 37.4998 29.1667 35.6342 29.1667 33.3332C29.1638 31.033 27.3002 29.1694 25 29.1665ZM25 35.8332C23.6194 35.8332 22.5 34.7138 22.5 33.3332C22.5 31.9526 23.6194 30.8332 25 30.8332C26.3806 30.8332 27.5 31.9526 27.5 33.3332C27.5 34.7138 26.3806 35.8332 25 35.8332Z" fill="#7B2424"/>
<path d="M11.8424 8.00415L11.8335 8.00008C11.7289 7.92643 11.6667 7.8068 11.6667 7.67904V0.833333C11.6667 0.373128 11.2935 0 10.8333 0H5.83333C5.37313 0 5 0.373128 5 0.833333V7.67741C5 7.80518 4.93775 7.9248 4.83317 7.99845L4.82341 8.00415C1.80664 10.011 -0.00447529 13.3952 6.47567e-07 17.0182V49.1667C6.47567e-07 49.6269 0.373129 50 0.833334 50H15.8333C16.2935 50 16.6667 49.6269 16.6667 49.1667V17.0182C16.6707 13.3952 14.8596 10.0106 11.8424 8.00415ZM6.66667 1.66667H10V3.33333H6.66667V1.66667ZM15 48.3333H1.66667V17.0182C1.66301 13.9583 3.1897 11.0994 5.73486 9.40063L5.74992 9.39087C6.32324 9.0092 6.66707 8.36588 6.66667 7.67741V5H10V7.67741C9.99959 8.36588 10.3434 9.0092 10.9167 9.39087L10.9318 9.39982C13.4766 11.0994 15.0033 13.9583 15 17.0182V48.3333Z" fill="#7B2424"/>
<path d="M4.16667 21.6665C3.70646 21.6665 3.33333 22.0396 3.33333 22.4998V44.1665C3.33333 44.6267 3.70646 44.9998 4.16667 44.9998H12.5C12.9602 44.9998 13.3333 44.6267 13.3333 44.1665V22.4998C13.3333 22.0396 12.9602 21.6665 12.5 21.6665H4.16667ZM11.6667 43.3332H5V23.3332H11.6667V43.3332Z" fill="#7B2424"/>
</g>
<defs>
<clipPath id="clip0">
<rect width="50" height="50" fill="white" transform="matrix(-1 0 0 1 50 0)"/>
</clipPath>
</defs>
</svg>
